<svg xmlns="http://www.w3.org/2000/svg" version="1.1" xmlns:xlink="http://www.w3.org/1999/xlink" xmlns:svgjs="http://svgjs.dev/svgjs" width="2000" height="1999" viewBox="0 0 2000 1999"><g transform="matrix(1,0,0,1,-0.431486880466764,-0.4312711370263287)"><svg viewBox="0 0 343 343" data-background-color="#ffffff" preserveAspectRatio="xMidYMid meet" height="1999" width="2000" xmlns="http://www.w3.org/2000/svg" xmlns:xlink="http://www.w3.org/1999/xlink"><g id="tight-bounds" transform="matrix(1,0,0,1,0.0740000000000407,0.07400000000001228)"><svg viewBox="0 0 342.85155851775386 342.85155851775386" height="342.85155851775386" width="342.85155851775386"><g><svg></svg></g><g><svg viewBox="0 0 342.85155851775386 342.85155851775386" height="342.85155851775386" width="342.85155851775386"><g><path d="M0 171.426c0-94.676 76.75-171.426 171.426-171.426 94.676 0 171.426 76.75 171.426 171.426 0 94.676-76.75 171.426-171.426 171.426-94.676 0-171.426-76.75-171.426-171.426zM171.426 330.542c87.877 0 159.116-71.239 159.116-159.116 0-87.877-71.239-159.116-159.116-159.116-87.877 0-159.116 71.239-159.116 159.116 0 87.877 71.239 159.116 159.116 159.116z" data-fill-palette-color="tertiary" fill="#ffffff" stroke="transparent"></path><ellipse rx="164.56874808852186" ry="164.56874808852186" cx="171.42577925887693" cy="171.42577925887693" fill="#ffffff" stroke="transparent" stroke-width="0" fill-opacity="1" data-fill-palette-color="tertiary"></ellipse></g><g transform="matrix(1,0,0,1,64.84655864529837,103.17576605858329)"><svg viewBox="0 0 213.1584412271571 136.50002640058727" height="136.50002640058727" width="213.1584412271571"><g><svg viewBox="0 0 213.1584412271571 136.50002640058727" height="136.50002640058727" width="213.1584412271571"><g><svg viewBox="0 0 213.1584412271571 136.50002640058727" height="136.50002640058727" width="213.1584412271571"><g id="textblocktransform"><svg viewBox="0 0 213.1584412271571 136.50002640058727" height="136.50002640058727" width="213.1584412271571" id="textblock"><g><svg viewBox="0 0 213.1584412271571 136.50002640058727" height="136.50002640058727" width="213.1584412271571"><g transform="matrix(1,0,0,1,0,0)"><svg width="213.1584412271571" viewBox="-12.050000190734863 -31.25 48.79999923706055 31.25" height="136.50002640058727" data-palette-color="#ffffff"><path d="M12.05-2.4L11.65-0.15-9.5-2.4 12.05-2.4ZM12.85-7.25L12.5-5-8.65-7.25 12.85-7.25ZM12.4-12.05L12.85-9.8-8.35-12.05 12.4-12.05ZM11.45-16.85L11.9-14.6-9.3-16.85 11.45-16.85ZM-11.15-26.45L9.55-26.45 10-24.2-11.15-26.45ZM-10.2-21.65L10.5-21.65 10.95-19.4-10.2-21.65ZM8.65-31.25L9.1-29-12.05-31.25 8.65-31.25ZM10.15-31.25L20.65-31.25 21.3-20.25 21.65-20.25 26.25-31.25 36.75-31.25 24.15-8.5 22.7 0 13.2 0 14.65-8.5 10.15-31.25Z" opacity="1" transform="matrix(1,0,0,1,0,0)" fill="#000000" class="wordmark-text-0" data-fill-palette-color="quaternary" id="text-0"></path></svg></g></svg></g></svg></g></svg></g><g></g></svg></g></svg></g></svg></g><defs></defs></svg><rect width="342.85155851775386" height="342.85155851775386" fill="none" stroke="none" visibility="hidden"></rect></g></svg></g></svg>