{
  "accessors": [
    {
      "bufferView": 2,
      "componentType": 5126,
      "count": 2753,
      "max": [
        66.31352996826172,
        200.13528442382813,
        38.79894256591797
      ],
      "min": [
        -66.20620727539063,
        0.05109059065580368,
        -70.7286376953125
      ],
      "type": "VEC3"
    },
    {
      "bufferView": 2,
      "byteOffset": 33036,
      "componentType": 5126,
      "count": 2753,
      "max": [
        1.0,
        1.0,
        1.0
      ],
      "min": [
        -1.0,
        -1.0,
        -1.0
      ],
      "type": "VEC3"
    },
    {
      "bufferView": 3,
      "componentType": 5126,
      "count": 2753,
      "max": [
        1.0,
        1.0,
        1.0,
        1.0
      ],
      "min": [
        -1.0,
        -1.0,
        -1.0,
        -1.0
      ],
      "type": "VEC4"
    },
    {
      "bufferView": 1,
      "componentType": 5126,
      "count": 2753,
      "max": [
        0.9875184297561646,
        0.9996448755264282
      ],
      "min": [
        0.004978216253221035,
        0.003191232681274414
      ],
      "type": "VEC2"
    },
    {
      "bufferView": 1,
      "byteOffset": 22024,
      "componentType": 5126,
      "count": 2753,
      "max": [
        0.9875184297561646,
        0.9996448755264282
      ],
      "min": [
        0.004978216253221035,
        0.003191232681274414
      ],
      "type": "VEC2"
    },
    {
      "bufferView": 0,
      "componentType": 5125,
      "count": 5847,
      "type": "SCALAR"
    },
    {
      "bufferView": 2,
      "byteOffset": 66072,
      "componentType": 5126,
      "count": 80,
      "max": [
        9.029190063476563,
        107.8884506225586,
        28.81983184814453
      ],
      "min": [
        -11.032881736755371,
        91.48645782470703,
        24.81395149230957
      ],
      "type": "VEC3"
    },
    {
      "bufferView": 2,
      "byteOffset": 67032,
      "componentType": 5126,
      "count": 80,
      "max": [
        0.6376305222511292,
        0.7014889121055603,
        0.9856446981430054
      ],
      "min": [
        -0.6376131176948547,
        -0.5554560422897339,
        0.31843820214271545
      ],
      "type": "VEC3"
    },
    {
      "bufferView": 3,
      "byteOffset": 44048,
      "componentType": 5126,
      "count": 80,
      "max": [
        0.7071753740310669,
        0.697009265422821,
        0.8371853828430176,
        1.0
      ],
      "min": [
        0.305397093296051,
        0.14909404516220093,
        -0.9404289722442627,
        1.0
      ],
      "type": "VEC4"
    },
    {
      "bufferView": 1,
      "byteOffset": 44048,
      "componentType": 5126,
      "count": 80,
      "max": [
        0.15917335450649261,
        0.8150508999824524
      ],
      "min": [
        0.06925234198570251,
        0.7802859544754028
      ],
      "type": "VEC2"
    },
    {
      "bufferView": 1,
      "byteOffset": 44688,
      "componentType": 5126,
      "count": 80,
      "max": [
        0.15917335450649261,
        0.8150508999824524
      ],
      "min": [
        0.06925234198570251,
        0.7802859544754028
      ],
      "type": "VEC2"
    },
    {
      "bufferView": 0,
      "byteOffset": 23388,
      "componentType": 5125,
      "count": 120,
      "type": "SCALAR"
    },
    {
      "bufferView": 2,
      "byteOffset": 67992,
      "componentType": 5126,
      "count": 28,
      "max": [
        27.931203842163086,
        194.38919067382813,
        -0.7578795552253723
      ],
      "min": [
        -30.388864517211914,
        148.29434204101563,
        -13.107635498046875
      ],
      "type": "VEC3"
    },
    {
      "bufferView": 2,
      "byteOffset": 68328,
      "componentType": 5126,
      "count": 28,
      "max": [
        5.48644493392203e-07,
        0.2609879672527313,
        0.966083824634552
      ],
      "min": [
        -5.477803028952621e-07,
        -0.26098960638046265,
        -0.9660837054252625
      ],
      "type": "VEC3"
    },
    {
      "bufferView": 3,
      "byteOffset": 45328,
      "componentType": 5126,
      "count": 28,
      "max": [
        1.0,
        7.265649037435651e-05,
        1.9667408196255565e-05,
        1.0
      ],
      "min": [
        1.0,
        -1.3647486412082799e-05,
        -4.229083060636185e-06,
        -1.0
      ],
      "type": "VEC4"
    },
    {
      "bufferView": 1,
      "byteOffset": 45328,
      "componentType": 5126,
      "count": 28,
      "max": [
        0.15309427678585052,
        0.7970618009567261
      ],
      "min": [
        0.048305854201316833,
        0.7049643993377686
      ],
      "type": "VEC2"
    },
    {
      "bufferView": 1,
      "byteOffset": 45552,
      "componentType": 5126,
      "count": 28,
      "max": [
        0.15309427678585052,
        0.7970618009567261
      ],
      "min": [
        0.048305854201316833,
        0.7049643993377686
      ],
      "type": "VEC2"
    },
    {
      "bufferView": 0,
      "byteOffset": 23868,
      "componentType": 5125,
      "count": 72,
      "type": "SCALAR"
    }
  ],
  "asset": {
    "extras": {
      "author": "Wesley Cann (https://sketchfab.com/wes_cann)",
      "license": "SKETCHFAB Standard (https://sketchfab.com/licenses)",
      "source": "https://sketchfab.com/3d-models/computer-terminal-1000poly-f24c0ab05c3c4e1793d07739b88bd996",
      "title": "Computer Terminal 1000Poly"
    },
    "generator": "Sketchfab-12.67.0",
    "version": "2.0"
  },
  "bufferViews": [
    {
      "buffer": 0,
      "byteLength": 24156,
      "name": "floatBufferViews",
      "target": 34963
    },
    {
      "buffer": 0,
      "byteLength": 45776,
      "byteOffset": 24156,
      "byteStride": 8,
      "name": "floatBufferViews",
      "target": 34962
    },
    {
      "buffer": 0,
      "byteLength": 68664,
      "byteOffset": 69932,
      "byteStride": 12,
      "name": "floatBufferViews",
      "target": 34962
    },
    {
      "buffer": 0,
      "byteLength": 45776,
      "byteOffset": 138596,
      "byteStride": 16,
      "name": "floatBufferViews",
      "target": 34962
    }
  ],
  "buffers": [
    {
      "byteLength": 184372,
      "uri": "scene.bin"
    }
  ],
  "images": [
    {
      "uri": "textures/phongE2_baseColor.png"
    },
    {
      "uri": "textures/phongE2_metallicRoughness.png"
    },
    {
      "uri": "textures/phongE2_normal.png"
    },
    {
      "uri": "textures/phongE5_emissive.png"
    },
    {
      "uri": "textures/phongE4_baseColor.png"
    }
  ],
  "materials": [
    {
      "doubleSided": true,
      "name": "phongE2",
      "normalTexture": {
        "index": 2
      },
      "occlusionTexture": {
        "index": 1
      },
      "pbrMetallicRoughness": {
        "baseColorTexture": {
          "index": 0
        },
        "metallicRoughnessTexture": {
          "index": 1
        }
      }
    },
    {
      "doubleSided": true,
      "emissiveFactor": [
        1.0,
        1.0,
        1.0
      ],
      "emissiveTexture": {
        "index": 3
      },
      "name": "phongE5",
      "normalTexture": {
        "index": 2
      },
      "occlusionTexture": {
        "index": 1
      },
      "pbrMetallicRoughness": {
        "baseColorTexture": {
          "index": 0
        },
        "metallicRoughnessTexture": {
          "index": 1
        }
      }
    },
    {
      "alphaMode": "BLEND",
      "doubleSided": true,
      "emissiveFactor": [
        1.0,
        1.0,
        1.0
      ],
      "emissiveTexture": {
        "index": 3
      },
      "name": "phongE4",
      "normalTexture": {
        "index": 2
      },
      "occlusionTexture": {
        "index": 1
      },
      "pbrMetallicRoughness": {
        "baseColorTexture": {
          "index": 4
        },
        "metallicRoughnessTexture": {
          "index": 1
        }
      }
    }
  ],
  "meshes": [
    {
      "name": "MESH_ComputerTermLOW_phongE2_0",
      "primitives": [
        {
          "attributes": {
            "NORMAL": 1,
            "POSITION": 0,
            "TANGENT": 2,
            "TEXCOORD_0": 3,
            "TEXCOORD_1": 4
          },
          "indices": 5,
          "material": 0,
          "mode": 4
        }
      ]
    },
    {
      "name": "MESH_ComputerTermLOW_phongE5_0",
      "primitives": [
        {
          "attributes": {
            "NORMAL": 7,
            "POSITION": 6,
            "TANGENT": 8,
            "TEXCOORD_0": 9,
            "TEXCOORD_1": 10
          },
          "indices": 11,
          "material": 1,
          "mode": 4
        }
      ]
    },
    {
      "name": "MESH_ComputerTermLOW_phongE4_0",
      "primitives": [
        {
          "attributes": {
            "NORMAL": 13,
            "POSITION": 12,
            "TANGENT": 14,
            "TEXCOORD_0": 15,
            "TEXCOORD_1": 16
          },
          "indices": 17,
          "material": 2,
          "mode": 4
        }
      ]
    }
  ],
  "nodes": [
    {
      "children": [
        1
      ],
      "matrix": [
        1.0,
        0.0,
        0.0,
        0.0,
        0.0,
        2.220446049250313e-16,
        -1.0,
        0.0,
        0.0,
        1.0,
        2.220446049250313e-16,
        0.0,
        0.0,
        0.0,
        0.0,
        1.0
      ],
      "name": "Sketchfab_model"
    },
    {
      "children": [
        2
      ],
      "matrix": [
        1.0,
        0.0,
        0.0,
        0.0,
        0.0,
        0.0,
        1.0,
        0.0,
        0.0,
        -1.0,
        0.0,
        0.0,
        0.0,
        0.0,
        0.0,
        1.0
      ],
      "name": "d320e4df864145dbbaafd7dc5f849042.fbx"
    },
    {
      "children": [
        3
      ],
      "name": "RootNode"
    },
    {
      "children": [
        4,
        5,
        6
      ],
      "name": "MESH_ComputerTermLOW"
    },
    {
      "mesh": 0,
      "name": "MESH_ComputerTermLOW_phongE2_0"
    },
    {
      "mesh": 1,
      "name": "MESH_ComputerTermLOW_phongE5_0"
    },
    {
      "mesh": 2,
      "name": "MESH_ComputerTermLOW_phongE4_0"
    }
  ],
  "samplers": [
    {
      "magFilter": 9729,
      "minFilter": 9987,
      "wrapS": 10497,
      "wrapT": 10497
    }
  ],
  "scene": 0,
  "scenes": [
    {
      "name": "Sketchfab_Scene",
      "nodes": [
        0
      ]
    }
  ],
  "textures": [
    {
      "sampler": 0,
      "source": 0
    },
    {
      "sampler": 0,
      "source": 1
    },
    {
      "sampler": 0,
      "source": 2
    },
    {
      "sampler": 0,
      "source": 3
    },
    {
      "sampler": 0,
      "source": 4
    }
  ]
}
